<?xml version="1.0" standalone="no"?>
<!DOCTYPE svg PUBLIC "-//W3C//DTD SVG 1.1//EN" "http://www.w3.org/Graphics/SVG/1.1/DTD/svg11.dtd" >
<svg xmlns="http://www.w3.org/2000/svg">
<metadata>
This is a custom SVG webfont generated by Font Squirrel.
Copyright   : Copyright 1990 as an unpublished work by Bitstream Inc  All rights reserved  Confidential
Foundry     : as an unpublished work by Bitstream Inc
</metadata>
<defs>
<font id="webfontd3NYLHzI" horiz-adv-x="638" >
<font-face units-per-em="2048" ascent="1638" descent="-410" />
<missing-glyph horiz-adv-x="641" />
<glyph unicode=" "  horiz-adv-x="641" />
<glyph unicode="&#x09;" horiz-adv-x="641" />
<glyph unicode="&#xa0;" horiz-adv-x="641" />
<glyph unicode="!" horiz-adv-x="702" d="M150 164q0 41 15 78t41.5 64.5t63.5 44t80 16.5q86 0 144.5 -58.5t58.5 -144.5q0 -43 -15.5 -80t-43 -64.5t-64.5 -43t-80 -15.5q-86 0 -143 58.5t-57 144.5zM166 487v1045h371v-1045h-371z" />
<glyph unicode="&#x22;" horiz-adv-x="712" d="M76 877v561h219v-561h-219zM416 877v561h223v-561h-223z" />
<glyph unicode="#" horiz-adv-x="1574" d="M23 381l86 231h270l82 230h-283l86 229h279l141 395h250l-139 -395h235l141 395h250l-139 -395h270l-86 -229h-268l-80 -230h277l-84 -231h-275l-141 -393h-250l139 393h-235l-141 -393h-250l139 393h-274zM625 610h245l82 232h-245z" />
<glyph unicode="$" horiz-adv-x="1280" d="M57 182l181 293q172 -199 356 -199q78 0 126 44.5t48 107.5q0 43 -14.5 71.5t-43 50t-71.5 37t-102 29.5q-102 29 -179 63t-127.5 82t-75 112.5t-24.5 150.5q0 199 123 321.5t350 145.5v139h129v-137q180 -20 338 -127l-127 -285q-70 59 -141.5 87t-138.5 28 q-72 0 -116 -34t-44 -87q0 -39 17.5 -64.5t48 -42t73.5 -28.5l94 -27q96 -27 171 -59.5t126 -82.5t78 -120.5t27 -171.5q0 -102 -33 -190t-93.5 -154.5t-145.5 -107.5t-191 -52v-243h-129v239q-147 4 -263 54.5t-227 156.5z" />
<glyph unicode="%" horiz-adv-x="1851" d="M49 1075q0 92 26.5 166t76 127t119 82t155.5 29t155.5 -29t119 -82t76 -127t26.5 -166t-26.5 -165.5t-76 -127t-119 -82t-155.5 -28.5t-155.5 28.5t-119 82t-76 127t-26.5 165.5zM299 1075q0 -123 27.5 -186.5t99.5 -63.5t99.5 62.5t27.5 187.5q0 123 -27.5 186.5 t-99.5 63.5t-99.5 -63.5t-27.5 -186.5zM393 -39l879 1518h188l-885 -1518h-182zM1067 367q0 92 26.5 165.5t76 127t119 82t155.5 28.5t155.5 -28.5t118.5 -82t75 -127t26 -165.5t-26 -167t-75 -128.5t-118.5 -82t-155.5 -28.5t-155.5 28.5t-119 82t-76 128.5t-26.5 167z M1317 367q0 -123 27.5 -187.5t99.5 -64.5t99.5 63.5t27.5 188.5q0 123 -27.5 186t-99.5 63t-99.5 -63t-27.5 -186z" />
<glyph unicode="&#x26;" horiz-adv-x="1650" d="M115 369q0 143 83 246.5t257 195.5q-135 158 -136 301q0 72 30 134.5t83 108.5t128 73.5t165 27.5q209 0 319.5 -100.5t110.5 -259.5q0 -211 -250 -369l172 -180q111 92 205 203l209 -215q-98 -121 -201 -207l318 -328h-443l-129 150q-106 -98 -221 -143.5t-258 -45.5 q-98 0 -180 31t-140.5 86t-90 130t-31.5 161zM467 395q0 -63 44 -107t112 -44q96 0 213 104l-236 258q-66 -59 -99.5 -108.5t-33.5 -102.5zM623 1092q0 -23 14 -59t39 -64l57 -70l47 39q102 84 103 164q0 53 -34 86t-91 33q-63 0 -99 -35t-36 -94z" />
<glyph unicode="'" horiz-adv-x="370" d="M76 877v561h219v-561h-219z" />
<glyph unicode="(" horiz-adv-x="743" d="M104 518q0 285 87.5 525.5t273.5 463.5l227 -147q-158 -190 -223.5 -394t-65.5 -448q0 -242 68 -446.5t213 -388.5l-219 -152q-186 223 -273.5 462.5t-87.5 524.5z" />
<glyph unicode=")" horiz-adv-x="743" d="M51 1360l230 147q186 -223 272 -463.5t86 -525.5t-86 -524.5t-272 -462.5l-220 152q145 184 213 388.5t68 446.5q0 244 -66.5 448t-224.5 394z" />
<glyph unicode="*" horiz-adv-x="1067" d="M160 995l243 99l-243 96l102 176l205 -158l-37 256h205l-35 -256l205 160l100 -178l-239 -96l241 -99l-102 -176l-205 160l35 -258h-203l33 258l-203 -160z" />
<glyph unicode="+" horiz-adv-x="1705" d="M254 496v231h481v494h238v-494h479v-231h-479v-496h-238v496h-481z" />
<glyph unicode="," d="M27 -295l213 627h372l-309 -627h-276z" />
<glyph unicode="-" horiz-adv-x="933" d="M127 340v326h680v-326h-680z" />
<glyph unicode="." d="M119 164q0 41 15.5 78t42 64.5t63 44t79.5 16.5q86 0 144.5 -58.5t58.5 -144.5q0 -43 -15 -80t-43 -64.5t-65 -43t-80 -15.5q-86 0 -143 58.5t-57 144.5z" />
<glyph unicode="/" horiz-adv-x="937" d="M0 -190l717 1687h221l-715 -1687h-223z" />
<glyph unicode="0" horiz-adv-x="1280" d="M86 721q0 180 39 320.5t111.5 237.5t175 148.5t229.5 51.5q260 0 406.5 -199t146.5 -573q0 -176 -39 -314.5t-110.5 -235t-174 -146.5t-229.5 -50t-229.5 51t-175 148.5t-111.5 239t-39 321.5zM455 721q0 -233 43 -347t143 -114t142 114.5t42 346.5q0 233 -43 347 t-141 114q-102 0 -144 -112.5t-42 -348.5z" />
<glyph unicode="1" horiz-adv-x="1280" d="M178 1118l172 332h506v-1450h-364v1118h-314z" />
<glyph unicode="2" horiz-adv-x="1280" d="M39 0l657 778q117 139 117 236q0 78 -48 126t-128 48q-92 0 -143.5 -59.5t-51.5 -174.5v-18h-352v10q0 125 38 224.5t108.5 168t171 105.5t225.5 37q127 0 227.5 -35t170 -97.5t105 -147.5t35.5 -185q0 -115 -51 -211t-147 -203l-264 -291h448v-311h-1118z" />
<glyph unicode="3" horiz-adv-x="1280" d="M84 465v20h371v-24q0 -195 178 -195q92 0 141 47t49 138q0 104 -52 150t-165 46h-21q-11 0 -24 -2v236h21q102 0 155.5 44t53.5 128q0 68 -46.5 109.5t-115.5 41.5q-76 0 -119 -41t-43 -116h-354q4 205 141 318.5t393 113.5q231 0 356 -103.5t125 -273.5 q0 -111 -59 -188.5t-172 -112.5q139 -23 214 -118t75 -243q0 -106 -40 -194t-111.5 -151.5t-173 -98.5t-222.5 -35q-127 0 -229.5 36t-175 101.5t-111.5 158.5t-39 208z" />
<glyph unicode="4" horiz-adv-x="1280" d="M55 328v288l545 840h455v-840h162v-288h-162v-328h-334v328h-666zM362 616h359v426q0 41 1 82t9 84q-29 -68 -56 -111l-44 -71z" />
<glyph unicode="5" horiz-adv-x="1280" d="M121 78l26 354l31 -6q53 -80 143.5 -127t194.5 -47q141 0 216 67.5t75 186.5q0 115 -81 189.5t-214 74.5q-174 0 -287 -119l-49 29l121 770h797v-299h-555l-29 -188q47 10 92 15t88 5q111 0 200 -35t151.5 -99.5t96 -155.5t33.5 -206q0 -119 -40.5 -216t-117.5 -166.5 t-188.5 -106.5t-253.5 -37q-137 0 -252.5 32t-197.5 85z" />
<glyph unicode="6" horiz-adv-x="1280" d="M90 492q0 84 20.5 162.5t56.5 156.5t83 157l102 165l205 317h408l-342 -516q80 23 153 22q90 0 168 -33.5t136.5 -95t92 -146.5t33.5 -187q0 -117 -39 -215.5t-111.5 -169t-176 -109.5t-234.5 -39t-234.5 39t-174 108.5t-108.5 168t-38 215.5zM420 475 q0 -104 59.5 -163.5t161.5 -59.5t161.5 59.5t59.5 163.5t-59.5 164.5t-161.5 60.5t-161.5 -60.5t-59.5 -164.5z" />
<glyph unicode="7" horiz-adv-x="1280" d="M127 1122v328h1118v-70l-637 -1380h-413l550 1122h-618z" />
<glyph unicode="8" horiz-adv-x="1280" d="M82 403q0 154 79 253.5t222 125.5q-117 27 -179.5 106t-62.5 195q0 182 128 289t370 107t371 -106.5t129 -289.5q0 -117 -62.5 -195.5t-179.5 -105.5q143 -27 222 -126t79 -253q0 -205 -143.5 -323.5t-415.5 -118.5t-414.5 118.5t-142.5 323.5zM438 449 q0 -90 54.5 -142.5t146.5 -52.5q94 0 147.5 51t53.5 144q0 92 -53.5 142t-147.5 50t-147.5 -51t-53.5 -141zM467 1069q0 -78 47 -123t125 -45q80 0 127 45t47 123t-46 122t-128 44q-80 0 -126 -44t-46 -122z" />
<glyph unicode="9" horiz-adv-x="1280" d="M86 946q0 117 39 215.5t110.5 169t175 110.5t234.5 40t234.5 -39t174 -108.5t108.5 -168t38 -215.5q0 -78 -18.5 -153.5t-52 -154.5t-83 -161l-108.5 -172l-203 -309h-407l342 508q-80 -23 -154 -23q-90 0 -168 34t-136 94.5t-92 145.5t-34 187zM430 965 q0 -104 59.5 -164t161.5 -60t161.5 59.5t59.5 164.5q0 104 -59 164.5t-162 60.5q-102 0 -161.5 -60.5t-59.5 -164.5z" />
<glyph unicode=":" horiz-adv-x="702" d="M150 164q0 41 15 78t41.5 64.5t63.5 43t80 15.5q86 0 144.5 -57.5t58.5 -143.5q0 -43 -15.5 -80t-43 -64.5t-64.5 -43t-80 -15.5q-86 0 -143 58.5t-57 144.5zM150 799q0 41 15 77.5t41.5 64.5t63.5 43t80 15q86 0 144.5 -57t58.5 -143q0 -43 -15.5 -80t-43 -64.5 t-64.5 -43t-80 -15.5q-86 0 -143 58.5t-57 144.5z" />
<glyph unicode=";" horiz-adv-x="702" d="M53 -295l213 627h373l-309 -627h-277zM244 799q0 41 15 77.5t43 64.5t64.5 43t79.5 15q86 0 143.5 -57t57.5 -143q0 -43 -15.5 -80t-43 -64.5t-63.5 -43t-79 -15.5q-86 0 -144 58.5t-58 144.5z" />
<glyph unicode="&#x37e;" horiz-adv-x="702" d="M53 -295l213 627h373l-309 -627h-277zM244 799q0 41 15 77.5t43 64.5t64.5 43t79.5 15q86 0 143.5 -57t57.5 -143q0 -43 -15.5 -80t-43 -64.5t-63.5 -43t-79 -15.5q-86 0 -144 58.5t-58 144.5z" />
<glyph unicode="&#x3c;" horiz-adv-x="1705" d="M264 494v233l1178 487v-253l-854 -351l854 -348v-254z" />
<glyph unicode="=" horiz-adv-x="1705" d="M254 272v230h1198v-230h-1198zM254 719v231h1198v-231h-1198z" />
<glyph unicode="&#x3e;" horiz-adv-x="1705" d="M264 8v254l854 348l-854 351v253l1178 -487v-233z" />
<glyph unicode="?" horiz-adv-x="1239" d="M127 1104v8q0 96 36 174t102.5 133.5t161.5 86t212 30.5q106 0 193.5 -33t148.5 -91t95 -141t34 -181q0 -82 -23.5 -152t-66.5 -120t-102.5 -78.5t-131.5 -30.5v-213h-344v413h107q115 0 173 46t58 132q0 70 -46 117t-111 47q-68 0 -109 -37.5t-45 -109.5h-342zM399 164 q0 41 15.5 78t43 64.5t64.5 44t80 16.5q86 0 143.5 -58.5t57.5 -144.5q0 -43 -15.5 -80t-43 -64.5t-63.5 -43t-79 -15.5q-86 0 -144.5 58.5t-58.5 144.5z" />
<glyph unicode="@" horiz-adv-x="2048" d="M82 520q0 342 209 598q147 182 357 277.5t470 95.5q176 0 324.5 -47t255.5 -131q135 -106 202.5 -240.5t67.5 -308.5q0 -168 -65.5 -307.5t-190.5 -239.5q-72 -57 -155.5 -86t-174.5 -29q-211 0 -221 160q-57 -84 -126.5 -121t-168.5 -37q-164 0 -247.5 86t-83.5 259 q0 123 38.5 227t105 179t156 118t191.5 43q154 0 229 -123l52 92h206l-153 -610q-2 -10 -3 -17.5t-1 -15.5q0 -59 63 -59q68 0 130.5 38.5t109.5 104.5t75.5 153t28.5 183q0 117 -46 216t-131 172t-203.5 113t-266.5 40q-297 0 -504 -146q-156 -111 -239.5 -274.5 t-83.5 -356.5q0 -152 53 -273.5t150.5 -207.5t235.5 -133t308 -47q164 0 315.5 47t280.5 139l97 -135q-309 -233 -693 -233q-197 0 -357.5 49t-285.5 145q-311 242 -311 643zM778 444q0 -86 35 -130t98 -44q82 0 146.5 57.5t89.5 159.5l51 209q-10 78 -51 117t-109 39 q-51 0 -98 -33t-83 -88t-57.5 -129t-21.5 -158z" />
<glyph unicode="A" horiz-adv-x="1478" d="M-16 0l505 1464h500l506 -1464h-397l-74 262h-567l-76 -262h-397zM543 547h397l-149 483q-8 35 -50 197l-33 -131q-13 -49 -18 -66z" />
<glyph unicode="B" horiz-adv-x="1388" d="M156 0v1464h401h43q135 0 241.5 -7t190.5 -44q102 -45 154.5 -125t52.5 -190q0 -127 -62.5 -199t-203.5 -111q158 -12 245 -109t87 -261q0 -117 -49.5 -206t-141.5 -138q-98 -53 -231 -63.5t-314 -10.5h-413zM526 299h140q127 0 193.5 31.5t66.5 122.5q0 104 -62.5 134.5 t-191.5 30.5h-146v-319zM526 879h80q127 0 192.5 27.5t65.5 117.5q0 49 -16.5 79t-49 45t-78.5 20.5t-108 5.5h-86v-295z" />
<glyph unicode="C" horiz-adv-x="1286" d="M94 731q0 166 55.5 306.5t154.5 243.5t235.5 160.5t298.5 57.5q98 0 190 -22.5t189 -69.5v-436q-80 90 -160 133t-178 43q-86 0 -158 -32t-122 -88t-77.5 -134t-27.5 -170q0 -84 27.5 -159t77.5 -130t121 -87t159 -32q98 0 178 43t160 134v-437q-96 -47 -188.5 -69.5 t-190.5 -22.5q-162 0 -298.5 57.5t-235.5 161t-154.5 243.5t-55.5 306z" />
<glyph unicode="D" horiz-adv-x="1568" d="M156 0v1464h305h47q102 0 194.5 -3t177.5 -16t162.5 -41t149.5 -79q139 -98 211 -246.5t72 -347.5q0 -197 -72 -346t-211 -248q-68 -49 -140.5 -75.5t-150.5 -41t-162 -17.5t-176 -3h-102h-305zM551 328h67q229 0 340 94t111 309q0 219 -111.5 312.5t-339.5 93.5h-67 v-809z" />
<glyph unicode="E" horiz-adv-x="1161" d="M156 0v1464h897v-321h-508v-254h479v-314h-479v-247h508v-328h-897z" />
<glyph unicode="F" horiz-adv-x="1114" d="M156 0v1464h897v-321h-508v-254h479v-314h-479v-575h-389z" />
<glyph unicode="G" horiz-adv-x="1726" d="M94 731q0 166 59.5 307.5t164 242.5t248 158.5t311.5 57.5q430 0 659 -338l-346 -166q-123 168 -313 168q-176 0 -280.5 -116.5t-104.5 -329.5q0 -211 103 -330t282 -119q78 0 142 20.5t113.5 56.5t79 86t37.5 110h-397v307h784q2 -23 2 -44v-44q0 -190 -52 -338 t-150.5 -249t-239.5 -153.5t-319 -52.5q-176 0 -314.5 52.5t-249.5 164.5q-104 106 -161.5 249.5t-57.5 299.5z" />
<glyph unicode="H" horiz-adv-x="1642" d="M156 0v1464h399v-569h532v569h400v-1464h-400v596h-532v-596h-399z" />
<glyph unicode="I" horiz-adv-x="735" d="M166 0v1464h403v-1464h-403z" />
<glyph unicode="J" horiz-adv-x="980" d="M-25 195l244 221q10 -66 43 -100.5t82 -34.5q37 0 57.5 24.5t29.5 71.5t11 118.5t2 163.5v805h398v-831v-117q0 -102 -10.5 -188t-53.5 -162q-55 -98 -150.5 -151.5t-221.5 -53.5q-277 1 -431 234z" />
<glyph unicode="K" horiz-adv-x="1484" d="M156 0v1464h395v-665l463 665h465l-541 -714l588 -750h-498l-477 657v-657h-395z" />
<glyph unicode="L" horiz-adv-x="1089" d="M156 0v1464h399v-1122h496v-342h-895z" />
<glyph unicode="M" horiz-adv-x="1894" d="M57 0l226 1464h395l221 -755l24 -84q13 -49 23 -115q8 61 20.5 110.5t24.5 90.5l223 753h396l225 -1464h-373l-86 633q-18 133 -30 328q-16 -98 -36 -165l-32 -110l-199 -686h-266l-199 686l-31 110q-19 67 -36 165q-6 -98 -14.5 -180.5t-18.5 -147.5l-86 -633h-371z" />
<glyph unicode="N" horiz-adv-x="1744" d="M156 0v1464h385l553 -753q10 -14 45 -78t88 -180q-10 86 -16.5 157.5t-6.5 130.5v723h383v-1464h-383l-553 756q-10 14 -45 76.5t-88 179.5q10 -86 16.5 -158t6.5 -131v-723h-385z" />
<glyph unicode="O" horiz-adv-x="1753" d="M94 729q0 158 58.5 295t171.5 248q111 109 255 167t298 58t299 -58.5t256 -166.5q113 -111 170 -249t57 -294q0 -158 -58.5 -296t-168.5 -247q-113 -111 -257.5 -168t-297.5 -57q-135 0 -263.5 45t-234.5 131q-139 111 -212 262.5t-73 329.5zM494 729q0 -90 26.5 -169 t76.5 -137t120.5 -91t159.5 -33q86 0 155.5 34t120.5 92t79 136t28 168t-29 168t-79 136.5t-120.5 92t-154.5 33.5t-155 -33.5t-121 -92t-78.5 -136.5t-28.5 -168z" />
<glyph unicode="P" horiz-adv-x="1298" d="M156 0v1464h417h29q139 0 249 -10t196 -65q98 -61 151 -171t53 -251q0 -147 -52 -253t-150 -165q-76 -45 -161 -55.5t-190 -10.5h-96h-72v-483h-374zM530 805h76q129 0 193.5 33.5t64.5 140.5q0 53 -17.5 86t-49 51.5t-78.5 25.5t-109 7h-80v-344z" />
<glyph unicode="Q" horiz-adv-x="1753" d="M94 731q0 156 58.5 294t171.5 249q111 109 253 166t300 57t299 -56.5t254 -166.5q111 -109 170 -248t59 -295q0 -166 -59.5 -305t-176.5 -244l267 -354h-340l-156 205q-61 -33 -140 -50.5t-171 -17.5q-172 0 -316.5 59.5t-249 164t-164 243.5t-59.5 299zM494 729 q0 -92 28.5 -171t78.5 -137.5t121 -92t157 -33.5q27 0 50 6t50 16l-207 267h346l76 -101q29 41 47.5 99.5t18.5 136.5q0 96 -29 178t-80 140.5t-122 91t-152 32.5q-82 0 -152 -32.5t-121 -91t-80.5 -137.5t-29.5 -171z" />
<glyph unicode="R" horiz-adv-x="1312" d="M156 0v1464h417h25q76 0 143.5 -2t128 -11t112.5 -28.5t99 -56.5q164 -127 164 -358q0 -172 -84 -277.5t-243 -140.5l399 -590h-451l-336 573v-573h-374zM530 772h74q127 0 187.5 42t60.5 140q0 115 -58.5 159t-183.5 44h-80v-385z" />
<glyph unicode="S" horiz-adv-x="1189" d="M41 176l180 297q176 -201 348 -201q84 0 133.5 43t49.5 109q0 43 -15.5 73.5t-46.5 52t-77 37t-107 31.5q-98 27 -172 61t-123 82t-73.5 112.5t-24.5 150.5q0 102 35.5 189t102 150.5t160 99.5t207.5 36q246 0 435 -131l-125 -287q-70 59 -141.5 88t-139.5 29 q-74 0 -118 -35t-44 -88q0 -39 17.5 -64.5t49.5 -43t75 -29.5l92 -25q98 -27 173 -59.5t126 -82.5t77.5 -120.5t26.5 -173.5q0 -115 -39 -210t-112.5 -162.5t-177 -105.5t-232.5 -38q-156 0 -278.5 51t-241.5 164z" />
<glyph unicode="T" horiz-adv-x="1132" d="M41 1118v346h1053v-346h-328v-1118h-399v1118h-326z" />
<glyph unicode="U" horiz-adv-x="1597" d="M147 674v168v622h398v-612v-182q0 -98 10 -168t39 -116t78 -67.5t127 -21.5q92 0 143 28.5t75.5 86t30 145.5t5.5 205v90v612h397v-622v-248q0 -166 -37 -286t-114.5 -196.5t-201.5 -113.5t-298 -37q-371 0 -525 178q-43 49 -68.5 107.5t-38.5 124t-16.5 141.5t-3.5 162z " />
<glyph unicode="V" horiz-adv-x="1456" d="M-39 1464h424l293 -819q10 -25 49 -196q20 86 33.5 135t17.5 61l291 819h424l-614 -1464h-304z" />
<glyph unicode="W" horiz-adv-x="1986" d="M-20 1464h403l168 -700q14 -55 24 -111l21 -108q10 57 24 111l27 108l184 700h322l184 -696q27 -98 36 -152.5t11 -62.5l25 123q10 53 21 92l172 696h403l-414 -1464h-370l-181 625l-49 196l-25 -106q-11 -49 -24 -90l-178 -625h-371z" />
<glyph unicode="X" horiz-adv-x="1445" d="M-29 0l543 768l-491 696h475l176 -340l24 -48q14 -28 25 -72q10 45 26 73l25 47l176 340h473l-489 -704l541 -760h-453l-248 434q-16 27 -28.5 56.5t-22.5 64.5q-18 -68 -49 -121l-250 -434h-453z" />
<glyph unicode="Y" horiz-adv-x="1222" d="M-98 1464h460l197 -377l24 -45q15 -29 25 -79q10 49 25.5 78.5t25.5 45.5l195 377h459l-512 -796v-668h-385v668z" />
<glyph unicode="Z" horiz-adv-x="1386" d="M4 0l739 1147h-593v317h1232l-737 -1145h653v-319h-1294z" />
<glyph unicode="[" horiz-adv-x="743" d="M180 -461v1958h508v-242h-219v-1474h219v-242h-508z" />
<glyph unicode="\" horiz-adv-x="937" d="M0 1497h223l715 -1687h-221z" />
<glyph unicode="]" horiz-adv-x="743" d="M57 -219h217v1474h-217v242h506v-1958h-506v242z" />
<glyph unicode="^" horiz-adv-x="2048" d="M414 899l465 563h288l465 -563h-264l-344 342l-346 -342h-264z" />
<glyph unicode="_" horiz-adv-x="1024" d="M0 -244h1024v-239h-1024v239z" />
<glyph unicode="`" horiz-adv-x="1024" d="M223 1497h281l182 -350h-154z" />
<glyph unicode="a" horiz-adv-x="1351" d="M80 504q0 123 32.5 222t93 170t147.5 108.5t194 37.5q115 0 196.5 -47t141.5 -151v166h329v-1008h-327v162q-72 -106 -157 -154.5t-206 -48.5q-98 0 -180 38t-140.5 108.5t-91 171t-32.5 225.5zM432 506q0 -119 61.5 -186.5t172.5 -67.5t173 67.5t62 186.5 q0 117 -62.5 186.5t-172.5 69.5q-111 0 -172.5 -69.5t-61.5 -186.5z" />
<glyph unicode="b" horiz-adv-x="1351" d="M133 0v1550h340v-528q0 -47 -2 -92t-8 -88q35 57 69.5 95t76.5 61.5t92.5 33.5t113.5 10q98 0 182 -37.5t143.5 -108.5t93.5 -170t34 -222q0 -127 -34 -227.5t-94.5 -171t-146.5 -107.5t-190 -37q-207 0 -342 203v-164h-328zM449 504q0 -119 60 -186.5t171 -67.5 q109 0 171 67.5t62 186.5q0 117 -62.5 185.5t-170.5 68.5q-109 0 -170 -68.5t-61 -185.5z" />
<glyph unicode="c" horiz-adv-x="944" d="M74 504q0 119 39 218t108.5 170t166.5 110.5t212 39.5q72 0 134.5 -14t121.5 -49v-301q-51 45 -99 66.5t-102 21.5q-104 0 -167.5 -68.5t-63.5 -191.5q0 -115 63.5 -184.5t176.5 -69.5q57 0 102 20.5t90 67.5v-309q-61 -35 -124.5 -52.5t-135.5 -17.5q-113 0 -208 38 t-164.5 107.5t-109.5 171t-40 226.5z" />
<glyph unicode="d" horiz-adv-x="1351" d="M84 504q0 123 34 222t93 170t143 108.5t183 37.5q61 0 111 -10t92 -33.5t79 -61.5t70 -95q-12 86 -12 180v528h342v-1550h-328v164q-135 -203 -342 -203q-104 0 -190.5 37t-146.5 107.5t-94 171t-34 227.5zM438 504q0 -119 61.5 -186.5t170.5 -67.5q111 0 172 67.5 t61 186.5q0 117 -62.5 185.5t-170.5 68.5q-109 0 -170.5 -68.5t-61.5 -185.5z" />
<glyph unicode="e" horiz-adv-x="1251" d="M74 494q0 115 41 215t114.5 173.5t178 116.5t229.5 43q123 0 223.5 -39.5t171 -116.5t108.5 -186.5t38 -248.5v-17h-768q2 -119 60 -181.5t167 -62.5q162 0 221 121l268 -108q-47 -115 -167.5 -178.5t-301.5 -63.5q-137 0 -245.5 40t-184 111.5t-114.5 169t-39 212.5z M418 635h409q-10 88 -66 139t-136 51q-176 0 -207 -190z" />
<glyph unicode="f" horiz-adv-x="718" d="M14 758v252h152v207q0 354 383 354q57 0 145 -19v-272q-49 18 -82 18q-53 0 -74.5 -31.5t-21.5 -95.5v-161h178v-252h-178v-758h-350v758h-152z" />
<glyph unicode="g" horiz-adv-x="1351" d="M80 512q0 121 32.5 219t93 167t147.5 106.5t194 37.5q115 0 196.5 -46t141.5 -148v162h329v-1008q0 -231 -139 -339.5t-432 -108.5q-244 0 -374 90t-138 245h369q8 -47 52 -73.5t118 -26.5q72 0 111.5 18.5t60 55.5t25.5 91t5 124v92q-113 -188 -350 -188 q-98 0 -179 36.5t-139.5 105.5t-91 167t-32.5 221zM428 508q0 -117 63.5 -183.5t174.5 -66.5t173 66.5t62 183.5t-62.5 183.5t-172.5 66.5q-111 0 -174.5 -66.5t-63.5 -183.5z" />
<glyph unicode="h" horiz-adv-x="1337" d="M131 0v1550h350v-544q0 -96 -12 -183q70 115 158 167t217 52q98 0 175 -31.5t124 -90.5q51 -66 62.5 -149t11.5 -193v-578h-357v541q0 119 -38 175t-128 56q-121 0 -167 -88t-46 -260v-424h-350z" />
<glyph unicode="i" d="M123 1325q0 41 15.5 76t42 62.5t62.5 43t76 15.5q82 0 139.5 -56.5t57.5 -140.5q0 -41 -15.5 -78t-43 -63.5t-62.5 -42t-76 -15.5t-76.5 16.5t-62 44t-42 63.5t-15.5 75zM141 0v1010h357v-1010h-357z" />
<glyph unicode="j" d="M123 1325q0 41 15.5 76t42 62.5t62.5 43t76 15.5q82 0 139.5 -56.5t57.5 -140.5q0 -41 -15.5 -78t-43 -63.5t-62.5 -42t-76 -15.5t-76.5 16.5t-62 44t-42 63.5t-15.5 75zM141 -446v1456h357v-1456h-357z" />
<glyph unicode="k" horiz-adv-x="1312" d="M133 0v1550h350v-981l367 441h442l-454 -486l495 -524h-469l-381 449v-449h-350z" />
<glyph unicode="l" d="M141 0v1550h357v-1550h-357z" />
<glyph unicode="m" horiz-adv-x="1941" d="M131 0v1010h350v-176q66 109 147 158.5t193 49.5q246 0 314 -190q121 190 344 190q182 0 274 -122q47 -66 57.5 -139.5t10.5 -162.5v-40v-578h-353v551q0 121 -28.5 176t-116.5 55q-61 0 -97 -24.5t-54.5 -69.5t-22.5 -110.5t-4 -149.5v-428h-344v551q0 59 -6.5 102 t-21.5 72t-43 43t-73 14q-63 0 -99 -24.5t-54.5 -70.5t-22.5 -111.5t-4 -147.5v-428h-346z" />
<glyph unicode="n" horiz-adv-x="1337" d="M131 0v1010h326v-205q72 125 163 181t224 56q98 0 175 -31.5t124 -90.5q51 -66 62.5 -149t11.5 -193v-578h-357v541q0 119 -38 175t-128 56q-121 0 -167 -88t-46 -260v-424h-350z" />
<glyph unicode="o" horiz-adv-x="1275" d="M74 502q0 113 43 211t118.5 171.5t179 115.5t222.5 42q121 0 223.5 -42t179 -115.5t119.5 -172t43 -210.5q0 -113 -43 -211t-119.5 -172t-179 -116t-223.5 -42t-224.5 43t-178 117t-117.5 172t-43 209zM426 502q0 -113 56.5 -177.5t154.5 -64.5t154.5 64.5t56.5 177.5 t-56.5 178t-154.5 65t-154.5 -65t-56.5 -178z" />
<glyph unicode="p" horiz-adv-x="1351" d="M133 -446v1456h328v-170q135 203 342 202q104 0 190 -36.5t146.5 -106.5t94.5 -170t34 -227q0 -123 -34 -222.5t-93.5 -170t-143.5 -109.5t-182 -39q-61 0 -111.5 10.5t-92.5 34t-77.5 62t-70.5 96.5q6 -43 8 -88t2 -92v-430h-340zM449 502q0 -117 61 -185.5t170 -68.5 t171 68.5t62 185.5q0 119 -62.5 186.5t-170.5 67.5q-111 0 -171 -67.5t-60 -186.5z" />
<glyph unicode="q" horiz-adv-x="1351" d="M84 502q0 127 34 227t94 170t146 106.5t191 36.5q207 0 342 -202v170h328v-1456h-342v430q0 94 12 180q-33 -57 -70 -96t-79 -62.5t-92 -34t-111 -10.5q-98 0 -182.5 39t-143.5 109.5t-93 170t-34 222.5zM438 502q0 -117 61.5 -185.5t170.5 -68.5t171 68.5t62 185.5 q0 119 -61.5 186.5t-171.5 67.5q-109 0 -170.5 -67.5t-61.5 -186.5z" />
<glyph unicode="r" horiz-adv-x="915" d="M133 0v1010h336v-238q49 127 139 193.5t207 66.5q37 0 100 -6l-34 -324q-33 10 -63 15.5t-60 5.5q-127 0 -199 -76t-72 -229v-418h-354z" />
<glyph unicode="s" horiz-adv-x="991" d="M37 84l74 272q78 -70 173 -105.5t187 -35.5q137 0 137 84q0 31 -15 49.5t-43 28.5t-68 19l-89 22q-158 41 -231.5 112.5t-73.5 188.5q0 70 26.5 129t79 102t129 67.5t175.5 24.5q195 0 403 -92l-74 -245q-74 51 -146.5 74.5t-143.5 23.5q-123 0 -123 -74q0 -27 16 -42 t46 -26.5t73 -21.5t96 -27q145 -43 216 -112.5t71 -192.5q0 -76 -30 -139.5t-86 -109.5t-137 -71.5t-181 -25.5q-131 0 -244 30t-217 93z" />
<glyph unicode="t" horiz-adv-x="722" d="M35 758v252h151v301h351v-301h151v-252h-151v-758h-351v758h-151z" />
<glyph unicode="u" horiz-adv-x="1292" d="M123 494v516h340v-539q0 -119 38 -179.5t140 -60.5t140 60.5t38 179.5v539h348v-516q0 -59 -2 -112.5t-14 -103t-36.5 -95.5t-67.5 -89q-133 -133 -402 -133q-264 0 -403 133q-43 41 -66.5 85t-35 93.5t-14.5 105t-3 116.5z" />
<glyph unicode="v" horiz-adv-x="1155" d="M-18 1010h380l173 -447l24 -67q14 -39 23 -90q8 51 23.5 90t25.5 67l172 447h371l-459 -1010h-279z" />
<glyph unicode="w" horiz-adv-x="1644" d="M-41 1010h367l151 -447q10 -31 21.5 -70.5t21.5 -86.5q8 47 21.5 85.5t23.5 71.5l150 447h215l149 -447l23 -70q12 -40 22 -87q8 47 21 86l22 71l152 447h369l-424 -1010h-252l-150 457q-10 27 -19 65.5t-20 91.5q-20 -100 -41 -157l-149 -457h-252z" />
<glyph unicode="x" horiz-adv-x="1085" d="M-55 0l397 541l-340 469h389l94 -172q12 -23 25.5 -51.5t24.5 -69.5q12 47 25 75.5t24 45.5l96 172h403l-346 -469l404 -541h-402l-151 254q-35 59 -49 121q-10 -35 -21.5 -63.5t-28.5 -57.5l-149 -254h-395z" />
<glyph unicode="y" horiz-adv-x="1089" d="M-47 1010h395l141 -365q10 -25 23.5 -63.5t24.5 -96.5q12 59 24 98.5t23 61.5l143 365h381l-635 -1456h-397l284 600z" />
<glyph unicode="z" horiz-adv-x="1110" d="M0 0l518 750h-455v260h1006l-537 -736h492v-274h-1024z" />
<glyph unicode="{" horiz-adv-x="1024" d="M152 410v241q10 0 18 -1t18 -1q121 0 169.5 56.5t48.5 187.5v254q0 106 17 175t89 108q53 29 128 39t173 10q18 0 37.5 -1t42.5 -1v-242q-10 0 -20.5 1t-20.5 1q-51 0 -84 -9t-51.5 -29.5t-24.5 -55.5t-6 -88v-240q0 -66 -9 -113t-32.5 -80.5t-64.5 -56t-105 -35.5 q66 -12 107 -33.5t63.5 -55t31.5 -81t9 -112.5v-242q0 -51 6 -86t24.5 -55.5t50.5 -29.5t83 -9q10 0 21.5 1t21.5 1v-242q-23 0 -42.5 -1t-39.5 -1q-98 0 -172 10.5t-127 38.5q-72 39 -89 106.5t-17 174.5v256q0 133 -48.5 187.5t-169.5 54.5q-8 0 -17 -1t-19 -1z" />
<glyph unicode="|" horiz-adv-x="1024" d="M393 -483v2048h240v-2048h-240z" />
<glyph unicode="}" horiz-adv-x="1024" d="M133 -172q12 0 22.5 -1t20.5 -1q53 0 85 9t49.5 29.5t23.5 55.5t6 86v242q0 66 9 113t31.5 80.5t64.5 55t106 33.5q-63 12 -105.5 35t-65 56.5t-31.5 81t-9 112.5v240q0 51 -6 86t-23.5 56.5t-48.5 30.5t-82 9q-10 0 -22.5 -1t-24.5 -1v242q23 0 42.5 1t37.5 1 q98 0 173 -10.5t128 -38.5q72 -39 89.5 -108t17.5 -175v-254q0 -133 48 -188.5t169 -55.5q10 0 18 1t18 1v-241q-10 0 -18 1t-18 1q-121 0 -169 -55.5t-48 -186.5v-256q0 -106 -17.5 -175t-89.5 -108q-51 -29 -123 -38t-168 -9q-23 0 -45 1t-45 1v242z" />
<glyph unicode="~" horiz-adv-x="1705" d="M178 401v254q111 72 206 108t181 36t158 -17.5t137 -40.5l147 -49q73 -25 152 -24q90 0 179 38.5t192 112.5v-254q-98 -68 -191.5 -102.5t-185.5 -34.5t-172 29q-111 39 -213 70.5t-207 31.5q-92 0 -183 -40t-200 -118z" />
<glyph unicode="&#xa1;" horiz-adv-x="702" d="M150 1329q0 86 57 144.5t143 58.5q43 0 80 -15.5t64.5 -43t43 -64.5t15.5 -80q0 -86 -58.5 -144.5t-144.5 -58.5q-43 0 -80 16.5t-63.5 44t-41.5 64.5t-15 78zM166 -39v1045h371v-1045h-371z" />
<glyph unicode="&#xa2;" horiz-adv-x="1280" d="M195 713q0 109 31.5 200t91 161.5t143.5 115.5t190 61v170h115v-168q57 -6 108.5 -20t102.5 -43v-303q-51 45 -99.5 67.5t-101.5 22.5q-104 0 -167.5 -68.5t-63.5 -193.5q0 -117 63.5 -186.5t175.5 -69.5q57 0 102.5 20.5t90.5 67.5v-309q-98 -51 -211 -64v-203h-115v203 q-225 41 -340.5 177.5t-115.5 361.5z" />
<glyph unicode="&#xa3;" horiz-adv-x="1280" d="M82 195q102 147 235 161q59 72 60 162q0 43 -17 105h-233v141h162q-41 59 -75 132t-34 177q0 80 33 153.5t97.5 129t157.5 89.5t216 34q236 0 365 -121t133 -350h-344q-4 188 -160 188q-66 0 -106 -41t-40 -104q0 -57 36 -123t77 -164h334v-141h-315q-2 -96 -43 -158 t-129 -96l4 -21q53 6 82 6q35 0 66.5 -8t62 -19.5t62.5 -19.5t67 -8q53 0 83.5 22.5t59.5 77.5l240 -190q-104 -248 -377 -248q-63 0 -120.5 16.5t-110.5 34.5l-99 35q-47 16 -88 16q-47 0 -84 -21.5t-78 -68.5z" />
<glyph unicode="&#xa4;" horiz-adv-x="1241" d="M61 444l201 203q-72 106 -72 238q0 135 72 237l-201 205l117 117l203 -201q49 35 108.5 54.5t131.5 19.5q139 0 243 -74l201 201l119 -117l-201 -205q70 -106 70 -237t-70 -238l201 -203l-119 -118l-201 202q-53 -39 -112.5 -56t-128.5 -17q-135 0 -242 73l-203 -202z M362 885q0 -53 20.5 -100.5t55.5 -83t82 -56t103 -20.5q53 0 101 20.5t83 56t55.5 82.5t20.5 101q0 53 -20.5 100t-55.5 83t-83 56.5t-101 20.5t-100.5 -20.5t-83.5 -56.5t-56.5 -83t-20.5 -100z" />
<glyph unicode="&#xa5;" horiz-adv-x="1335" d="M-31 1452h389l250 -414q10 -16 26.5 -53t35.5 -92q12 41 26.5 78t32.5 65l252 416h383l-256 -395h217v-203h-352l-94 -149h446v-203h-483v-502h-346v502h-486v203h449l-99 149h-350v203h217z" />
<glyph unicode="&#xa6;" horiz-adv-x="1024" d="M393 -350v758h240v-758h-240zM393 674v758h240v-758h-240z" />
<glyph unicode="&#xa7;" horiz-adv-x="1218" d="M66 514q0 123 56 209t161 121q-78 37 -115 100.5t-37 163.5q0 86 34 157.5t97.5 124t154.5 81t208 28.5q229 0 353 -109.5t130 -314.5h-371v21q0 68 -36.5 103.5t-102.5 35.5q-63 0 -101 -37t-38 -98q0 -49 19.5 -75t56 -38t88 -17t114.5 -14q209 -29 311.5 -127 t102.5 -292q0 -125 -54.5 -210t-160.5 -122q78 -39 114.5 -102.5t36.5 -161.5q0 -86 -33.5 -159t-97 -125t-154.5 -81t-208 -29q-233 0 -357 114t-126 323h370v-23q0 -150 140 -149q63 0 101 36.5t38 98.5q0 49 -19.5 74.5t-56.5 38t-88 18.5l-115 14q-209 29 -312 127 t-103 295zM434 528q0 -92 52.5 -141t119.5 -49q78 0 129 53t51 129q0 82 -51 134.5t-123 52.5q-78 0 -128 -50.5t-50 -128.5z" />
<glyph unicode="&#xa8;" horiz-adv-x="1024" d="M172 1333q0 55 43 98.5t102 43.5t100.5 -41t41.5 -101q0 -63 -40 -104t-102 -41q-59 0 -102 43t-43 102zM563 1333q0 55 42 98.5t102 43.5q59 0 101 -41t42 -101q0 -63 -41 -104t-102 -41q-59 0 -101.5 43t-42.5 102z" />
<glyph unicode="&#xa9;" horiz-adv-x="1705" d="M106 737q0 147 56.5 283.5t165.5 247.5q104 106 237 161.5t287 55.5t289 -55.5t243 -163.5q106 -106 160.5 -240.5t54.5 -288.5t-54 -287t-159 -237q-111 -111 -249 -167t-285 -56t-282.5 56t-243.5 165q-109 109 -164.5 242.5t-55.5 283.5zM242 737q0 -121 47 -231.5 t135 -198.5t197.5 -134t232.5 -46q121 0 232.5 46t203.5 136q86 86 130 193.5t44 234.5q0 125 -45 235.5t-131 196.5q-88 88 -197.5 134.5t-236.5 46.5q-256 0 -430 -179q-88 -90 -135 -200.5t-47 -233.5zM446 731q0 104 29 188.5t83 142.5t130 89t168 31q160 0 258 -80 t107 -211h-213q-6 68 -47 104.5t-109 36.5q-80 0 -128 -74.5t-48 -218.5q0 -285 186 -284q66 0 106 40t46 115h215q-6 -143 -106.5 -230t-264.5 -87q-94 0 -170 29.5t-130 87t-83 138.5t-29 183z" />
<glyph unicode="&#xaa;" horiz-adv-x="1013" d="M59 1110q0 174 94.5 275.5t256.5 101.5q86 0 147 -34t107 -105v116h247v-704h-245v112q-53 -74 -117 -107.5t-156 -33.5q-150 0 -242 101.5t-92 277.5zM324 1112q0 -84 47 -131t129 -47t129 47t47 131q0 82 -47 130t-129 48t-129 -48t-47 -130z" />
<glyph unicode="&#xab;" horiz-adv-x="1114" d="M45 502l358 489l193 -133l-264 -356l264 -348l-193 -140zM518 502l361 489l190 -133l-262 -356l262 -348l-190 -140z" />
<glyph unicode="&#xac;" horiz-adv-x="1705" d="M254 639v227h1198v-501h-229v274h-969z" />
<glyph unicode="&#xad;" horiz-adv-x="933" d="M127 340v326h680v-326h-680z" />
<glyph unicode="&#xae;" horiz-adv-x="1705" d="M106 737q0 150 58.5 288t169.5 249q104 104 235 157.5t283 53.5q156 0 293 -57.5t246 -167.5q104 -104 156 -238.5t52 -284.5q0 -156 -56 -291t-165 -239q-111 -106 -246 -161.5t-280 -55.5q-152 0 -287 58t-243 169q-104 109 -160 241t-56 279zM244 737 q0 -121 44 -228.5t130 -195.5q88 -92 199.5 -139t234.5 -47q121 0 231.5 45t200.5 131q88 86 134 196.5t46 237.5q0 123 -43 232.5t-129 195.5q-90 92 -200.5 138.5t-237.5 46.5q-250 0 -426 -172q-92 -92 -138 -205t-46 -236zM537 344v819h329q178 0 266.5 -60.5 t88.5 -176.5q0 -80 -45.5 -138.5t-128.5 -82.5l182 -361h-248l-154 326h-65v-326h-225zM762 803h80q147 0 147 106q0 59 -39 86t-121 27h-67v-219z" />
<glyph unicode="&#xaf;" horiz-adv-x="1024" d="M205 1247v168h614v-168h-614z" />
<glyph unicode="&#x2c9;" horiz-adv-x="1024" d="M205 1247v168h614v-168h-614z" />
<glyph unicode="&#xb0;" horiz-adv-x="673" d="M27 1155q0 66 24.5 123t66.5 99t99 65.5t121 23.5q63 0 119.5 -24.5t99.5 -66.5t67.5 -98t24.5 -122q0 -63 -24.5 -119.5t-66.5 -99.5t-99.5 -67.5t-122.5 -24.5q-63 0 -120.5 24.5t-98.5 66.5t-65.5 98t-24.5 122zM172 1157q0 -70 47 -118t119 -48q70 0 117 49.5 t47 116.5q0 68 -47 116t-117 48q-68 0 -117 -47t-49 -117z" />
<glyph unicode="&#xb1;" horiz-adv-x="1705" d="M254 -18v231h1198v-231h-1198zM254 690v232h481v319h238v-319h479v-232h-479v-319h-238v319h-481z" />
<glyph unicode="&#xb2;" horiz-adv-x="845" d="M27 575l432 467q78 84 78 142q0 47 -32 75.5t-85 28.5q-59 0 -93 -35.5t-34 -103.5v-12h-234v6q0 150 96.5 235.5t262.5 85.5q170 0 263 -78.5t93 -199.5q0 -70 -34.5 -127.5t-96.5 -122.5l-176 -174h297v-187h-737z" />
<glyph unicode="&#xb3;" horiz-adv-x="845" d="M55 854v12h246v-14q0 -117 117 -117q125 0 125 111q0 61 -34 90t-110 29h-13q-7 0 -15 -2v141h12q139 0 139 102q0 41 -30.5 66.5t-75.5 25.5q-51 0 -80 -24.5t-29 -69.5h-233q4 123 95 190.5t259 67.5q154 0 235.5 -61.5t81.5 -163.5q0 -66 -39.5 -113t-113.5 -67 q92 -14 141 -71.5t49 -145.5q0 -63 -26.5 -116.5t-73.5 -91.5t-113.5 -58.5t-146.5 -20.5q-170 0 -268.5 81t-98.5 220z" />
<glyph unicode="&#xb4;" horiz-adv-x="1024" d="M338 1147l182 350h281l-309 -350h-154z" />
<glyph unicode="&#xb5;" horiz-adv-x="1314" d="M-45 -428l238 1518h358l-80 -529q-12 -82 -12 -143q0 -170 143 -170q92 0 141.5 70.5t71.5 218.5l88 553h357l-175 -1090h-321l18 125q-41 -74 -89 -107.5t-120 -33.5q-59 0 -106 30.5t-78 89.5l-82 -532h-352z" />
<glyph unicode="&#x3bc;" horiz-adv-x="1314" d="M-45 -428l238 1518h358l-80 -529q-12 -82 -12 -143q0 -170 143 -170q92 0 141.5 70.5t71.5 218.5l88 553h357l-175 -1090h-321l18 125q-41 -74 -89 -107.5t-120 -33.5q-59 0 -106 30.5t-78 89.5l-82 -532h-352z" />
<glyph unicode="&#xb6;" horiz-adv-x="1024" d="M29 1130q0 78 26.5 141.5t76.5 109.5t123 72t163 26h579v-123h-106v-1356h-174v1356h-152v-1356h-174v784q-84 4 -150.5 31t-113.5 72t-72.5 107t-25.5 136z" />
<glyph unicode="&#xb7;" d="M119 721q0 41 15.5 78t42 64.5t63 43t79.5 15.5q86 0 144.5 -57.5t58.5 -143.5q0 -43 -15 -80t-43 -64.5t-65 -43t-80 -15.5q-86 0 -143 58.5t-57 144.5z" />
<glyph unicode="&#x2219;" d="M119 721q0 41 15.5 78t42 64.5t63 43t79.5 15.5q86 0 144.5 -57.5t58.5 -143.5q0 -43 -15 -80t-43 -64.5t-65 -43t-80 -15.5q-86 0 -143 58.5t-57 144.5z" />
<glyph unicode="&#xb8;" horiz-adv-x="1024" d="M272 -301q94 -27 162 -36t109 -9q86 0 86 72q0 63 -119 63h-26q-13 0 -29 -2v213h114v-84h19q113 0 171 -50t58 -142q0 -98 -64.5 -153.5t-189.5 -55.5q-57 0 -130 10t-161 35v139z" />
<glyph unicode="&#xb9;" horiz-adv-x="845" d="M117 1247l112 199h334v-871h-239v672h-207z" />
<glyph unicode="&#xba;" horiz-adv-x="956" d="M55 1108q0 80 32 148.5t89 119.5t134 81t167 30t168 -30t134.5 -81t89 -119.5t32.5 -148.5q0 -78 -32.5 -146.5t-89 -119.5t-134.5 -81t-168 -30t-167 30t-134 81t-89 119.5t-32 146.5zM319 1108q0 -78 42 -123t116 -45t117 45t43 123q0 80 -43 126t-117 46t-116 -46 t-42 -126z" />
<glyph unicode="&#xbb;" horiz-adv-x="1114" d="M45 154l262 348l-262 356l191 133l358 -489l-358 -488zM518 154l262 348l-262 356l191 133l360 -489l-360 -488z" />
<glyph unicode="&#xbc;" horiz-adv-x="1955" d="M113 1260l108 184h318v-811h-230v627h-196zM465 -39l835 1518h189l-840 -1518h-184zM1184 184v162l344 469h284v-469h103v-162h-103v-184h-208v184h-420zM1378 346h226v238q0 23 1 46t5 46q-18 -37 -36 -62l-28 -39z" />
<glyph unicode="&#xbd;" horiz-adv-x="1955" d="M113 1260l108 184h318v-811h-230v627h-196zM465 -39l835 1518h189l-840 -1518h-184zM1174 0l413 436q74 78 74 131q0 43 -29.5 71t-81.5 28q-59 0 -91 -34t-32 -97v-11h-221v6q0 139 92.5 219t249.5 80q160 0 249 -73.5t89 -186.5q0 -66 -32.5 -119t-92.5 -112l-166 -164 h283v-174h-704z" />
<glyph unicode="&#xbe;" horiz-adv-x="1955" d="M53 893v12h234v-14q0 -109 112 -109q119 0 119 103q0 59 -32.5 84.5t-104.5 25.5q-16 0 -27 -2v133h13q131 0 131 97q0 37 -29 60.5t-74 23.5q-47 0 -73.5 -22.5t-26.5 -65.5h-223q4 115 90 178t246 63q147 0 225 -57t78 -154q0 -61 -37 -105t-109 -63q88 -12 135.5 -65 t47.5 -137q0 -59 -26 -108.5t-71 -85.5t-108.5 -55.5t-139.5 -19.5q-162 0 -256 77t-94 206zM465 -39l835 1518h189l-840 -1518h-184zM1184 184v162l344 469h284v-469h103v-162h-103v-184h-208v184h-420zM1378 346h226v238q0 23 1 46t5 46q-18 -37 -36 -62l-28 -39z" />
<glyph unicode="&#xbf;" horiz-adv-x="1239" d="M123 403q0 84 23.5 153t66.5 119t102.5 78.5t130.5 30.5v213h345v-413h-107q-115 0 -173 -47.5t-58 -133.5q0 -70 46 -115.5t111 -45.5q68 0 109 37.5t45 109.5h342v-8q0 -94 -36 -173t-102.5 -135.5t-161.5 -87t-212 -30.5q-106 0 -193.5 32.5t-149 92t-95 142.5 t-33.5 181zM430 1329q0 43 15.5 80t43 64.5t63.5 43t79 15.5q86 0 144.5 -58.5t58.5 -144.5q0 -41 -15.5 -78t-43 -64.5t-64.5 -44t-80 -16.5q-86 0 -143.5 58.5t-57.5 144.5z" />
<glyph unicode="&#xc0;" horiz-adv-x="1478" d="M-16 0l505 1464h500l506 -1464h-397l-74 262h-567l-76 -262h-397zM543 547h397l-149 483q-8 35 -50 197l-33 -131q-13 -49 -18 -66zM450 1970h281l182 -350h-154z" />
<glyph unicode="&#xc1;" horiz-adv-x="1478" d="M-16 0l505 1464h500l506 -1464h-397l-74 262h-567l-76 -262h-397zM543 547h397l-149 483q-8 35 -50 197l-33 -131q-13 -49 -18 -66zM565 1620l182 350h281l-309 -350h-154z" />
<glyph unicode="&#xc2;" horiz-adv-x="1478" d="M-16 0l505 1464h500l506 -1464h-397l-74 262h-567l-76 -262h-397zM543 547h397l-149 483q-8 35 -50 197l-33 -131q-13 -49 -18 -66zM417 1620l183 350h276l182 -350h-153l-166 180l-168 -180h-154z" />
<glyph unicode="&#xc3;" horiz-adv-x="1478" d="M-16 0l505 1464h500l506 -1464h-397l-74 262h-567l-76 -262h-397zM543 547h397l-149 483q-8 35 -50 197l-33 -131q-13 -49 -18 -66zM407 1665q29 125 80 185.5t135 60.5q31 0 90 -17l95 -26q25 -8 57 -9q68 0 88 87h119q-31 -129 -82 -191.5t-137 -62.5q-16 0 -36 2 t-40 8l-92 26l-40.5 10.5t-27.5 4.5q-63 0 -90 -78h-119z" />
<glyph unicode="&#xc4;" horiz-adv-x="1478" d="M-16 0l505 1464h500l506 -1464h-397l-74 262h-567l-76 -262h-397zM543 547h397l-149 483q-8 35 -50 197l-33 -131q-13 -49 -18 -66zM399 1806q0 55 43 98.5t102 43.5t100.5 -41t41.5 -101q0 -63 -40 -104t-102 -41q-59 0 -102 43t-43 102zM790 1806q0 55 42 98.5 t102 43.5q59 0 101 -41t42 -101q0 -63 -41 -104t-102 -41q-59 0 -101.5 43t-42.5 102z" />
<glyph unicode="&#xc5;" horiz-adv-x="1478" d="M-16 0l516 1464l159 -4v4q-82 20 -132 89t-50 157q0 55 20.5 102.5t55.5 83t83 56t103 20.5t103.5 -20.5t84.5 -56t56.5 -84t20.5 -101.5q0 -86 -47.5 -151.5t-129.5 -94.5v-4l154 4l514 -1464h-397l-74 262h-567l-76 -262h-397zM543 547h397l-149 483q-8 35 -50 197 l-33 -131q-13 -49 -18 -66zM629 1708q0 -45 31.5 -77t78.5 -32t80 32t33 77q0 47 -33 80t-80 33q-45 0 -77.5 -33t-32.5 -80z" />
<glyph unicode="&#xc6;" horiz-adv-x="1763" d="M-33 0l506 1464h875l98 -321h-473l84 -254h467l96 -314h-461l82 -247h455l98 -328h-831l-76 262h-451l-74 -262h-395zM514 547h289l-94 321q-14 49 -50 197l-28 -115q-12 -49 -23 -82z" />
<glyph unicode="&#xc7;" horiz-adv-x="1286" d="M94 731q0 166 55.5 306.5t154.5 243.5t235.5 160.5t298.5 57.5q98 0 190 -22.5t189 -69.5v-436q-80 90 -160 133t-178 43q-86 0 -158 -32t-122 -88t-77.5 -134t-27.5 -170q0 -84 27.5 -159t77.5 -130t121 -87t159 -32q98 0 178 43t160 134v-437q-96 -47 -188.5 -69.5 t-190.5 -22.5q-162 0 -298.5 57.5t-235.5 161t-154.5 243.5t-55.5 306zM553 -301q94 -27 162 -36t109 -9q86 0 86 72q0 63 -119 63h-26q-13 0 -29 -2v213h114v-84h19q113 0 171 -50t58 -142q0 -98 -64.5 -153.5t-189.5 -55.5q-57 0 -130 10t-161 35v139z" />
<glyph unicode="&#xc8;" horiz-adv-x="1161" d="M156 0v1464h897v-321h-508v-254h479v-314h-479v-247h508v-328h-897zM325 1970h281l182 -350h-154z" />
<glyph unicode="&#xc9;" horiz-adv-x="1161" d="M156 0v1464h897v-321h-508v-254h479v-314h-479v-247h508v-328h-897zM440 1620l182 350h281l-309 -350h-154z" />
<glyph unicode="&#xca;" horiz-adv-x="1161" d="M156 0v1464h897v-321h-508v-254h479v-314h-479v-247h508v-328h-897zM292 1620l183 350h276l182 -350h-153l-166 180l-168 -180h-154z" />
<glyph unicode="&#xcb;" horiz-adv-x="1161" d="M156 0v1464h897v-321h-508v-254h479v-314h-479v-247h508v-328h-897zM274 1806q0 55 43 98.5t102 43.5t100.5 -41t41.5 -101q0 -63 -40 -104t-102 -41q-59 0 -102 43t-43 102zM665 1806q0 55 42 98.5t102 43.5q59 0 101 -41t42 -101q0 -63 -41 -104t-102 -41 q-59 0 -101.5 43t-42.5 102z" />
<glyph unicode="&#xcc;" horiz-adv-x="735" d="M166 0v1464h403v-1464h-403zM82 1970h281l182 -350h-154z" />
<glyph unicode="&#xcd;" horiz-adv-x="735" d="M166 0v1464h403v-1464h-403zM197 1620l182 350h281l-309 -350h-154z" />
<glyph unicode="&#xce;" horiz-adv-x="735" d="M166 0v1464h403v-1464h-403zM49 1620l183 350h276l182 -350h-153l-166 180l-168 -180h-154z" />
<glyph unicode="&#xcf;" horiz-adv-x="735" d="M166 0v1464h403v-1464h-403zM31 1806q0 55 43 98.5t102 43.5t100.5 -41t41.5 -101q0 -63 -40 -104t-102 -41q-59 0 -102 43t-43 102zM422 1806q0 55 42 98.5t102 43.5q59 0 101 -41t42 -101q0 -63 -41 -104t-102 -41q-59 0 -101.5 43t-42.5 102z" />
<glyph unicode="&#xd0;" horiz-adv-x="1591" d="M0 614v258h178v592h303h47q102 0 195.5 -3t178.5 -16t163 -41t149 -79q139 -98 211 -246.5t72 -347.5q0 -197 -71.5 -346t-211.5 -248q-68 -49 -140.5 -75.5t-151 -41t-162.5 -17.5t-176 -3h-103h-303v614h-178zM571 328h70q229 0 340 94t111 309q0 219 -112 312.5 t-339 93.5h-70v-265h273v-258h-273v-286z" />
<glyph unicode="&#xd1;" horiz-adv-x="1744" d="M156 0v1464h385l553 -753q10 -14 45 -78t88 -180q-10 86 -16.5 157.5t-6.5 130.5v723h383v-1464h-383l-553 756q-10 14 -45 76.5t-88 179.5q10 -86 16.5 -158t6.5 -131v-723h-385zM540 1665q29 125 80 185.5t135 60.5q31 0 90 -17l95 -26q25 -8 57 -9q68 0 88 87h119 q-31 -129 -82 -191.5t-137 -62.5q-16 0 -36 2t-40 8l-92 26l-40.5 10.5t-27.5 4.5q-63 0 -90 -78h-119z" />
<glyph unicode="&#xd2;" horiz-adv-x="1753" d="M94 729q0 158 58.5 295t171.5 248q111 109 255 167t298 58t299 -58.5t256 -166.5q113 -111 170 -249t57 -294q0 -158 -58.5 -296t-168.5 -247q-113 -111 -257.5 -168t-297.5 -57q-135 0 -263.5 45t-234.5 131q-139 111 -212 262.5t-73 329.5zM494 729q0 -90 26.5 -169 t76.5 -137t120.5 -91t159.5 -33q86 0 155.5 34t120.5 92t79 136t28 168t-29 168t-79 136.5t-120.5 92t-154.5 33.5t-155 -33.5t-121 -92t-78.5 -136.5t-28.5 -168zM588 1970h281l182 -350h-154z" />
<glyph unicode="&#xd3;" horiz-adv-x="1753" d="M94 729q0 158 58.5 295t171.5 248q111 109 255 167t298 58t299 -58.5t256 -166.5q113 -111 170 -249t57 -294q0 -158 -58.5 -296t-168.5 -247q-113 -111 -257.5 -168t-297.5 -57q-135 0 -263.5 45t-234.5 131q-139 111 -212 262.5t-73 329.5zM494 729q0 -90 26.5 -169 t76.5 -137t120.5 -91t159.5 -33q86 0 155.5 34t120.5 92t79 136t28 168t-29 168t-79 136.5t-120.5 92t-154.5 33.5t-155 -33.5t-121 -92t-78.5 -136.5t-28.5 -168zM703 1620l182 350h281l-309 -350h-154z" />
<glyph unicode="&#xd4;" horiz-adv-x="1753" d="M94 729q0 158 58.5 295t171.5 248q111 109 255 167t298 58t299 -58.5t256 -166.5q113 -111 170 -249t57 -294q0 -158 -58.5 -296t-168.5 -247q-113 -111 -257.5 -168t-297.5 -57q-135 0 -263.5 45t-234.5 131q-139 111 -212 262.5t-73 329.5zM494 729q0 -90 26.5 -169 t76.5 -137t120.5 -91t159.5 -33q86 0 155.5 34t120.5 92t79 136t28 168t-29 168t-79 136.5t-120.5 92t-154.5 33.5t-155 -33.5t-121 -92t-78.5 -136.5t-28.5 -168zM555 1620l183 350h276l182 -350h-153l-166 180l-168 -180h-154z" />
<glyph unicode="&#xd5;" horiz-adv-x="1753" d="M94 729q0 158 58.5 295t171.5 248q111 109 255 167t298 58t299 -58.5t256 -166.5q113 -111 170 -249t57 -294q0 -158 -58.5 -296t-168.5 -247q-113 -111 -257.5 -168t-297.5 -57q-135 0 -263.5 45t-234.5 131q-139 111 -212 262.5t-73 329.5zM494 729q0 -90 26.5 -169 t76.5 -137t120.5 -91t159.5 -33q86 0 155.5 34t120.5 92t79 136t28 168t-29 168t-79 136.5t-120.5 92t-154.5 33.5t-155 -33.5t-121 -92t-78.5 -136.5t-28.5 -168zM545 1665q29 125 80 185.5t135 60.5q31 0 90 -17l95 -26q25 -8 57 -9q68 0 88 87h119q-31 -129 -82 -191.5 t-137 -62.5q-16 0 -36 2t-40 8l-92 26l-40.5 10.5t-27.5 4.5q-63 0 -90 -78h-119z" />
<glyph unicode="&#xd6;" horiz-adv-x="1753" d="M94 729q0 158 58.5 295t171.5 248q111 109 255 167t298 58t299 -58.5t256 -166.5q113 -111 170 -249t57 -294q0 -158 -58.5 -296t-168.5 -247q-113 -111 -257.5 -168t-297.5 -57q-135 0 -263.5 45t-234.5 131q-139 111 -212 262.5t-73 329.5zM494 729q0 -90 26.5 -169 t76.5 -137t120.5 -91t159.5 -33q86 0 155.5 34t120.5 92t79 136t28 168t-29 168t-79 136.5t-120.5 92t-154.5 33.5t-155 -33.5t-121 -92t-78.5 -136.5t-28.5 -168zM537 1806q0 55 43 98.5t102 43.5t100.5 -41t41.5 -101q0 -63 -40 -104t-102 -41q-59 0 -102 43t-43 102z M928 1806q0 55 42 98.5t102 43.5q59 0 101 -41t42 -101q0 -63 -41 -104t-102 -41q-59 0 -101.5 43t-42.5 102z" />
<glyph unicode="&#xd7;" horiz-adv-x="1705" d="M268 170l441 440l-441 443l162 161l440 -440l441 440l162 -161l-441 -443l441 -440l-162 -162l-441 441l-440 -441z" />
<glyph unicode="&#xd8;" horiz-adv-x="1753" d="M94 731q0 160 60.5 300t167 243.5t252 164t315.5 60.5q135 0 248.5 -39t220.5 -123l155 162l97 -94l-152 -158q98 -98 149.5 -233t51.5 -283q0 -156 -58.5 -294t-170.5 -249q-111 -109 -253.5 -166t-299.5 -57q-147 0 -267.5 41t-228.5 129l-176 -182l-92 94l170 176 q-189 225 -189 508zM479 731q0 -66 16.5 -122t53.5 -111l549 569q-102 72 -221 72q-82 0 -155 -32t-126 -87t-85 -129t-32 -160zM643 403q96 -78 234 -77q82 0 154.5 31.5t126.5 87t86 130t32 162.5q0 145 -80 238z" />
<glyph unicode="&#xd9;" horiz-adv-x="1597" d="M147 674v168v622h398v-612v-182q0 -98 10 -168t39 -116t78 -67.5t127 -21.5q92 0 143 28.5t75.5 86t30 145.5t5.5 205v90v612h397v-622v-248q0 -166 -37 -286t-114.5 -196.5t-201.5 -113.5t-298 -37q-371 0 -525 178q-43 49 -68.5 107.5t-38.5 124t-16.5 141.5t-3.5 162z M510 1970h281l182 -350h-154z" />
<glyph unicode="&#xda;" horiz-adv-x="1597" d="M147 674v168v622h398v-612v-182q0 -98 10 -168t39 -116t78 -67.5t127 -21.5q92 0 143 28.5t75.5 86t30 145.5t5.5 205v90v612h397v-622v-248q0 -166 -37 -286t-114.5 -196.5t-201.5 -113.5t-298 -37q-371 0 -525 178q-43 49 -68.5 107.5t-38.5 124t-16.5 141.5t-3.5 162z M625 1620l182 350h281l-309 -350h-154z" />
<glyph unicode="&#xdb;" horiz-adv-x="1597" d="M147 674v168v622h398v-612v-182q0 -98 10 -168t39 -116t78 -67.5t127 -21.5q92 0 143 28.5t75.5 86t30 145.5t5.5 205v90v612h397v-622v-248q0 -166 -37 -286t-114.5 -196.5t-201.5 -113.5t-298 -37q-371 0 -525 178q-43 49 -68.5 107.5t-38.5 124t-16.5 141.5t-3.5 162z M477 1620l183 350h276l182 -350h-153l-166 180l-168 -180h-154z" />
<glyph unicode="&#xdc;" horiz-adv-x="1597" d="M147 674v168v622h398v-612v-182q0 -98 10 -168t39 -116t78 -67.5t127 -21.5q92 0 143 28.5t75.5 86t30 145.5t5.5 205v90v612h397v-622v-248q0 -166 -37 -286t-114.5 -196.5t-201.5 -113.5t-298 -37q-371 0 -525 178q-43 49 -68.5 107.5t-38.5 124t-16.5 141.5t-3.5 162z M459 1806q0 55 43 98.5t102 43.5t100.5 -41t41.5 -101q0 -63 -40 -104t-102 -41q-59 0 -102 43t-43 102zM850 1806q0 55 42 98.5t102 43.5q59 0 101 -41t42 -101q0 -63 -41 -104t-102 -41q-59 0 -101.5 43t-42.5 102z" />
<glyph unicode="&#xdd;" horiz-adv-x="1222" d="M-98 1464h460l197 -377l24 -45q15 -29 25 -79q10 49 25.5 78.5t25.5 45.5l195 377h459l-512 -796v-668h-385v668zM438 1620l182 350h281l-309 -350h-154z" />
<glyph unicode="&#xde;" horiz-adv-x="1298" d="M156 0v1464h374v-223h43q74 0 140.5 -1t125 -8t110.5 -23.5t98 -45.5q98 -63 151 -171.5t53 -250.5q0 -147 -52 -251.5t-150 -163.5q-76 -45 -161 -55.5t-190 -10.5h-96h-72v-260h-374zM530 582h76q127 0 192.5 32.5t65.5 139.5q0 53 -17.5 85.5t-49 51t-78.5 26 t-109 7.5h-80v-342z" />
<glyph unicode="&#xdf;" horiz-adv-x="1351" d="M137 0v1028q0 123 16.5 217t86.5 172q61 70 171.5 111t252.5 41q256 0 392 -104.5t136 -286.5q0 -117 -62.5 -194t-185.5 -112q158 -16 247 -121.5t89 -279.5q0 -233 -138 -363.5t-407 -130.5q-31 0 -58.5 1.5t-53.5 1.5v266q25 -2 40 -2h21q119 0 180.5 64.5t61.5 187.5 q0 248 -267 247q-4 0 -12 -1t-24 -1v226h8q238 0 237 182q0 76 -47 119t-131 43q-72 0 -112.5 -22.5t-60 -68.5t-25 -116t-5.5 -166v-137v-801h-350z" />
<glyph unicode="&#xe0;" horiz-adv-x="1351" d="M80 504q0 123 32.5 222t93 170t147.5 108.5t194 37.5q115 0 196.5 -47t141.5 -151v166h329v-1008h-327v162q-72 -106 -157 -154.5t-206 -48.5q-98 0 -180 38t-140.5 108.5t-91 171t-32.5 225.5zM432 506q0 -119 61.5 -186.5t172.5 -67.5t173 67.5t62 186.5 q0 117 -62.5 186.5t-172.5 69.5q-111 0 -172.5 -69.5t-61.5 -186.5zM387 1497h281l182 -350h-154z" />
<glyph unicode="&#xe1;" horiz-adv-x="1351" d="M80 504q0 123 32.5 222t93 170t147.5 108.5t194 37.5q115 0 196.5 -47t141.5 -151v166h329v-1008h-327v162q-72 -106 -157 -154.5t-206 -48.5q-98 0 -180 38t-140.5 108.5t-91 171t-32.5 225.5zM432 506q0 -119 61.5 -186.5t172.5 -67.5t173 67.5t62 186.5 q0 117 -62.5 186.5t-172.5 69.5q-111 0 -172.5 -69.5t-61.5 -186.5zM502 1147l182 350h281l-309 -350h-154z" />
<glyph unicode="&#xe2;" horiz-adv-x="1351" d="M80 504q0 123 32.5 222t93 170t147.5 108.5t194 37.5q115 0 196.5 -47t141.5 -151v166h329v-1008h-327v162q-72 -106 -157 -154.5t-206 -48.5q-98 0 -180 38t-140.5 108.5t-91 171t-32.5 225.5zM432 506q0 -119 61.5 -186.5t172.5 -67.5t173 67.5t62 186.5 q0 117 -62.5 186.5t-172.5 69.5q-111 0 -172.5 -69.5t-61.5 -186.5zM354 1147l183 350h276l182 -350h-153l-166 180l-168 -180h-154z" />
<glyph unicode="&#xe3;" horiz-adv-x="1351" d="M80 504q0 123 32.5 222t93 170t147.5 108.5t194 37.5q115 0 196.5 -47t141.5 -151v166h329v-1008h-327v162q-72 -106 -157 -154.5t-206 -48.5q-98 0 -180 38t-140.5 108.5t-91 171t-32.5 225.5zM432 506q0 -119 61.5 -186.5t172.5 -67.5t173 67.5t62 186.5 q0 117 -62.5 186.5t-172.5 69.5q-111 0 -172.5 -69.5t-61.5 -186.5zM344 1192q29 125 80 185.5t135 60.5q31 0 90 -17l95 -26q25 -8 57 -9q68 0 88 87h119q-31 -129 -82 -191.5t-137 -62.5q-16 0 -36 2t-40 8l-92 26l-40.5 10.5t-27.5 4.5q-63 0 -90 -78h-119z" />
<glyph unicode="&#xe4;" horiz-adv-x="1351" d="M80 504q0 123 32.5 222t93 170t147.5 108.5t194 37.5q115 0 196.5 -47t141.5 -151v166h329v-1008h-327v162q-72 -106 -157 -154.5t-206 -48.5q-98 0 -180 38t-140.5 108.5t-91 171t-32.5 225.5zM432 506q0 -119 61.5 -186.5t172.5 -67.5t173 67.5t62 186.5 q0 117 -62.5 186.5t-172.5 69.5q-111 0 -172.5 -69.5t-61.5 -186.5zM336 1333q0 55 43 98.5t102 43.5t100.5 -41t41.5 -101q0 -63 -40 -104t-102 -41q-59 0 -102 43t-43 102zM727 1333q0 55 42 98.5t102 43.5q59 0 101 -41t42 -101q0 -63 -41 -104t-102 -41q-59 0 -101.5 43 t-42.5 102z" />
<glyph unicode="&#xe5;" horiz-adv-x="1351" d="M80 504q0 123 32.5 222t93 170t147.5 108.5t194 37.5q115 0 196.5 -47t141.5 -151v166h329v-1008h-327v162q-72 -106 -157 -154.5t-206 -48.5q-98 0 -180 38t-140.5 108.5t-91 171t-32.5 225.5zM418 1370q0 55 20.5 103.5t57 85t85 57t103.5 20.5t103.5 -20.5t84 -57 t56 -85t20.5 -103.5t-20.5 -103t-56 -85t-84 -57.5t-103.5 -20.5t-103.5 20.5t-85 57.5t-57 85t-20.5 103zM432 506q0 -119 61.5 -186.5t172.5 -67.5t173 67.5t62 186.5q0 117 -62.5 186.5t-172.5 69.5q-111 0 -172.5 -69.5t-61.5 -186.5zM571 1370q0 -47 33 -80t80 -33 t79 33t32 80t-32 80t-79 33t-80 -33t-33 -80z" />
<glyph unicode="&#xe6;" horiz-adv-x="1863" d="M66 303q0 80 27.5 143.5t76.5 107.5t117.5 68.5t150.5 24.5q86 0 156 -17.5t133 -58.5q0 8 1 14.5t1 14.5q0 186 -254 186q-98 0 -185 -20.5t-147 -54.5l-2 262q184 66 369 65q125 0 211 -32.5t145 -110.5q59 68 144.5 108.5t210.5 40.5t226 -39.5t174 -115.5t113 -185.5 t40 -248.5v-21h-768q0 -119 59 -181.5t168 -62.5q166 0 221 119l268 -106q-47 -117 -167.5 -179.5t-305.5 -62.5q-143 0 -240.5 37t-160.5 123q-117 -152 -377 -152q-199 0 -302 90t-103 244zM401 317q0 -137 148 -137q86 0 131 36t45 93q0 59 -42 94t-120 35 q-76 0 -119 -35t-43 -86zM1014 633h409q-10 88 -66.5 139t-135.5 51q-176 0 -207 -190z" />
<glyph unicode="&#xe7;" horiz-adv-x="944" d="M74 504q0 119 39 218t108.5 170t166.5 110.5t212 39.5q72 0 134.5 -14t121.5 -49v-301q-51 45 -99 66.5t-102 21.5q-104 0 -167.5 -68.5t-63.5 -191.5q0 -115 63.5 -184.5t176.5 -69.5q57 0 102 20.5t90 67.5v-309q-61 -35 -124.5 -52.5t-135.5 -17.5q-113 0 -208 38 t-164.5 107.5t-109.5 171t-40 226.5zM309 -301q94 -27 162 -36t109 -9q86 0 86 72q0 63 -119 63h-26q-13 0 -29 -2v213h114v-84h19q113 0 171 -50t58 -142q0 -98 -64.5 -153.5t-189.5 -55.5q-57 0 -130 10t-161 35v139z" />
<glyph unicode="&#xe8;" horiz-adv-x="1251" d="M74 494q0 115 41 215t114.5 173.5t178 116.5t229.5 43q123 0 223.5 -39.5t171 -116.5t108.5 -186.5t38 -248.5v-17h-768q2 -119 60 -181.5t167 -62.5q162 0 221 121l268 -108q-47 -115 -167.5 -178.5t-301.5 -63.5q-137 0 -245.5 40t-184 111.5t-114.5 169t-39 212.5z M418 635h409q-10 88 -66 139t-136 51q-176 0 -207 -190zM338 1497h281l182 -350h-154z" />
<glyph unicode="&#xe9;" horiz-adv-x="1251" d="M74 494q0 115 41 215t114.5 173.5t178 116.5t229.5 43q123 0 223.5 -39.5t171 -116.5t108.5 -186.5t38 -248.5v-17h-768q2 -119 60 -181.5t167 -62.5q162 0 221 121l268 -108q-47 -115 -167.5 -178.5t-301.5 -63.5q-137 0 -245.5 40t-184 111.5t-114.5 169t-39 212.5z M418 635h409q-10 88 -66 139t-136 51q-176 0 -207 -190zM453 1147l182 350h281l-309 -350h-154z" />
<glyph unicode="&#xea;" horiz-adv-x="1251" d="M74 494q0 115 41 215t114.5 173.5t178 116.5t229.5 43q123 0 223.5 -39.5t171 -116.5t108.5 -186.5t38 -248.5v-17h-768q2 -119 60 -181.5t167 -62.5q162 0 221 121l268 -108q-47 -115 -167.5 -178.5t-301.5 -63.5q-137 0 -245.5 40t-184 111.5t-114.5 169t-39 212.5z M418 635h409q-10 88 -66 139t-136 51q-176 0 -207 -190zM305 1147l183 350h276l182 -350h-153l-166 180l-168 -180h-154z" />
<glyph unicode="&#xeb;" horiz-adv-x="1251" d="M74 494q0 115 41 215t114.5 173.5t178 116.5t229.5 43q123 0 223.5 -39.5t171 -116.5t108.5 -186.5t38 -248.5v-17h-768q2 -119 60 -181.5t167 -62.5q162 0 221 121l268 -108q-47 -115 -167.5 -178.5t-301.5 -63.5q-137 0 -245.5 40t-184 111.5t-114.5 169t-39 212.5z M418 635h409q-10 88 -66 139t-136 51q-176 0 -207 -190zM287 1333q0 55 43 98.5t102 43.5t100.5 -41t41.5 -101q0 -63 -40 -104t-102 -41q-59 0 -102 43t-43 102zM678 1333q0 55 42 98.5t102 43.5q59 0 101 -41t42 -101q0 -63 -41 -104t-102 -41q-59 0 -101.5 43t-42.5 102z " />
<glyph unicode="&#xec;" d="M141 1010h357v-1010h-357v1010zM33 1497h281l182 -350h-154z" />
<glyph unicode="&#xed;" d="M141 1010h357v-1010h-357v1010zM148 1147l182 350h281l-309 -350h-154z" />
<glyph unicode="&#xee;" d="M141 1010h357v-1010h-357v1010zM0 1147l183 350h276l182 -350h-153l-166 180l-168 -180h-154z" />
<glyph unicode="&#xef;" d="M141 1010h357v-1010h-357v1010zM-18 1333q0 55 43 98.5t102 43.5t100.5 -41t41.5 -101q0 -63 -40 -104t-102 -41q-59 0 -102 43t-43 102zM373 1333q0 55 42 98.5t102 43.5q59 0 101 -41t42 -101q0 -63 -41 -104t-102 -41q-59 0 -101.5 43t-42.5 102z" />
<glyph unicode="&#xf0;" horiz-adv-x="1275" d="M74 465q0 104 41 195.5t110.5 160t164.5 107.5t202 39q117 0 223 -68q-86 143 -219 254l-297 -137l-70 127l242 106l-85 49q-40 23 -77 41l119 209q74 -33 150.5 -77t162.5 -101l314 146l71 -130l-262 -118q172 -162 255 -338t83 -381q0 -279 -147.5 -433.5 t-417.5 -154.5q-123 0 -226.5 41t-178 109.5t-116.5 161t-42 192.5zM426 473q0 -98 56.5 -156.5t154.5 -58.5t154.5 58.5t56.5 156.5t-55.5 157.5t-155.5 59.5t-155.5 -59.5t-55.5 -157.5z" />
<glyph unicode="&#xf1;" horiz-adv-x="1337" d="M131 0v1010h326v-205q72 125 163 181t224 56q98 0 175 -31.5t124 -90.5q51 -66 62.5 -149t11.5 -193v-578h-357v541q0 119 -38 175t-128 56q-121 0 -167 -88t-46 -260v-424h-350zM338 1192q29 125 80 185.5t135 60.5q31 0 90 -17l95 -26q25 -8 57 -9q68 0 88 87h119 q-31 -129 -82 -191.5t-137 -62.5q-16 0 -36 2t-40 8l-92 26l-40.5 10.5t-27.5 4.5q-63 0 -90 -78h-119z" />
<glyph unicode="&#xf2;" horiz-adv-x="1275" d="M74 502q0 113 43 211t118.5 171.5t179 115.5t222.5 42q121 0 223.5 -42t179 -115.5t119.5 -172t43 -210.5q0 -113 -43 -211t-119.5 -172t-179 -116t-223.5 -42t-224.5 43t-178 117t-117.5 172t-43 209zM426 502q0 -113 56.5 -177.5t154.5 -64.5t154.5 64.5t56.5 177.5 t-56.5 178t-154.5 65t-154.5 -65t-56.5 -178zM350 1497h281l182 -350h-154z" />
<glyph unicode="&#xf3;" horiz-adv-x="1275" d="M74 502q0 113 43 211t118.5 171.5t179 115.5t222.5 42q121 0 223.5 -42t179 -115.5t119.5 -172t43 -210.5q0 -113 -43 -211t-119.5 -172t-179 -116t-223.5 -42t-224.5 43t-178 117t-117.5 172t-43 209zM426 502q0 -113 56.5 -177.5t154.5 -64.5t154.5 64.5t56.5 177.5 t-56.5 178t-154.5 65t-154.5 -65t-56.5 -178zM465 1147l182 350h281l-309 -350h-154z" />
<glyph unicode="&#xf4;" horiz-adv-x="1275" d="M74 502q0 113 43 211t118.5 171.5t179 115.5t222.5 42q121 0 223.5 -42t179 -115.5t119.5 -172t43 -210.5q0 -113 -43 -211t-119.5 -172t-179 -116t-223.5 -42t-224.5 43t-178 117t-117.5 172t-43 209zM426 502q0 -113 56.5 -177.5t154.5 -64.5t154.5 64.5t56.5 177.5 t-56.5 178t-154.5 65t-154.5 -65t-56.5 -178zM317 1147l183 350h276l182 -350h-153l-166 180l-168 -180h-154z" />
<glyph unicode="&#xf5;" horiz-adv-x="1275" d="M74 502q0 113 43 211t118.5 171.5t179 115.5t222.5 42q121 0 223.5 -42t179 -115.5t119.5 -172t43 -210.5q0 -113 -43 -211t-119.5 -172t-179 -116t-223.5 -42t-224.5 43t-178 117t-117.5 172t-43 209zM426 502q0 -113 56.5 -177.5t154.5 -64.5t154.5 64.5t56.5 177.5 t-56.5 178t-154.5 65t-154.5 -65t-56.5 -178zM307 1192q29 125 80 185.5t135 60.5q31 0 90 -17l95 -26q25 -8 57 -9q68 0 88 87h119q-31 -129 -82 -191.5t-137 -62.5q-16 0 -36 2t-40 8l-92 26l-40.5 10.5t-27.5 4.5q-63 0 -90 -78h-119z" />
<glyph unicode="&#xf6;" horiz-adv-x="1275" d="M74 502q0 113 43 211t118.5 171.5t179 115.5t222.5 42q121 0 223.5 -42t179 -115.5t119.5 -172t43 -210.5q0 -113 -43 -211t-119.5 -172t-179 -116t-223.5 -42t-224.5 43t-178 117t-117.5 172t-43 209zM426 502q0 -113 56.5 -177.5t154.5 -64.5t154.5 64.5t56.5 177.5 t-56.5 178t-154.5 65t-154.5 -65t-56.5 -178zM299 1333q0 55 43 98.5t102 43.5t100.5 -41t41.5 -101q0 -63 -40 -104t-102 -41q-59 0 -102 43t-43 102zM690 1333q0 55 42 98.5t102 43.5q59 0 101 -41t42 -101q0 -63 -41 -104t-102 -41q-59 0 -101.5 43t-42.5 102z" />
<glyph unicode="&#xf7;" horiz-adv-x="1705" d="M254 496v231h1198v-231h-1198zM688 205q0 70 49 118t117 48t116 -48.5t48 -117.5q0 -66 -46 -115t-118 -49q-68 0 -117 47t-49 117zM688 1016q0 70 49 118t117 48q33 0 62.5 -13.5t52 -36t36 -52t13.5 -64.5q0 -33 -12.5 -62.5t-35 -52t-53 -36t-65.5 -13.5 q-70 0 -117 48t-47 116z" />
<glyph unicode="&#xf8;" horiz-adv-x="1275" d="M74 504q0 113 44 211t119.5 172t178 115.5t221.5 41.5q96 0 184 -28.5t160 -81.5l133 137l86 -76l-131 -139q66 -68 99.5 -159t33.5 -193q0 -113 -44 -211t-120.5 -172t-180 -116t-220.5 -42q-104 0 -190.5 28.5t-145.5 78.5l-117 -117l-84 84l111 113q-70 86 -103.5 171 t-33.5 183zM416 500q0 -35 4 -64.5t20 -62.5l336 344q-35 27 -67.5 35t-73.5 8q-98 0 -158.5 -69.5t-60.5 -190.5zM502 293q51 -47 139 -47q98 0 159.5 68.5t61.5 191.5q0 66 -22 129z" />
<glyph unicode="&#xf9;" horiz-adv-x="1292" d="M123 494v516h340v-539q0 -119 38 -179.5t140 -60.5t140 60.5t38 179.5v539h348v-516q0 -59 -2 -112.5t-14 -103t-36.5 -95.5t-67.5 -89q-133 -133 -402 -133q-264 0 -403 133q-43 41 -66.5 85t-35 93.5t-14.5 105t-3 116.5zM358 1497h281l182 -350h-154z" />
<glyph unicode="&#xfa;" horiz-adv-x="1292" d="M123 494v516h340v-539q0 -119 38 -179.5t140 -60.5t140 60.5t38 179.5v539h348v-516q0 -59 -2 -112.5t-14 -103t-36.5 -95.5t-67.5 -89q-133 -133 -402 -133q-264 0 -403 133q-43 41 -66.5 85t-35 93.5t-14.5 105t-3 116.5zM473 1147l182 350h281l-309 -350h-154z" />
<glyph unicode="&#xfb;" horiz-adv-x="1292" d="M123 494v516h340v-539q0 -119 38 -179.5t140 -60.5t140 60.5t38 179.5v539h348v-516q0 -59 -2 -112.5t-14 -103t-36.5 -95.5t-67.5 -89q-133 -133 -402 -133q-264 0 -403 133q-43 41 -66.5 85t-35 93.5t-14.5 105t-3 116.5zM325 1147l183 350h276l182 -350h-153l-166 180 l-168 -180h-154z" />
<glyph unicode="&#xfc;" horiz-adv-x="1292" d="M123 494v516h340v-539q0 -119 38 -179.5t140 -60.5t140 60.5t38 179.5v539h348v-516q0 -59 -2 -112.5t-14 -103t-36.5 -95.5t-67.5 -89q-133 -133 -402 -133q-264 0 -403 133q-43 41 -66.5 85t-35 93.5t-14.5 105t-3 116.5zM307 1333q0 55 43 98.5t102 43.5t100.5 -41 t41.5 -101q0 -63 -40 -104t-102 -41q-59 0 -102 43t-43 102zM698 1333q0 55 42 98.5t102 43.5q59 0 101 -41t42 -101q0 -63 -41 -104t-102 -41q-59 0 -101.5 43t-42.5 102z" />
<glyph unicode="&#xfd;" horiz-adv-x="1089" d="M-47 1010h395l141 -365q10 -25 23.5 -63.5t24.5 -96.5q12 59 24 98.5t23 61.5l143 365h381l-635 -1456h-397l284 600zM371 1147l182 350h281l-309 -350h-154z" />
<glyph unicode="&#xfe;" horiz-adv-x="1351" d="M133 -446v1996h340v-540q0 -37 -1 -80t-11 -90q72 104 151.5 153t190.5 49q104 0 189 -36.5t146.5 -106.5t95.5 -170t34 -227q0 -123 -34 -222.5t-93.5 -170t-143.5 -109.5t-182 -39q-61 0 -111.5 10.5t-92.5 34t-77.5 62t-70.5 96.5q8 -49 9 -94t1 -86v-430h-340z M449 502q0 -117 61 -185.5t170 -68.5t171 68.5t62 185.5q0 119 -62.5 186.5t-170.5 67.5q-111 0 -171 -67.5t-60 -186.5z" />
<glyph unicode="&#xff;" horiz-adv-x="1089" d="M-47 1010h395l141 -365q10 -25 23.5 -63.5t24.5 -96.5q12 59 24 98.5t23 61.5l143 365h381l-635 -1456h-397l284 600zM205 1333q0 55 43 98.5t102 43.5t100.5 -41t41.5 -101q0 -63 -40 -104t-102 -41q-59 0 -102 43t-43 102zM596 1333q0 55 42 98.5t102 43.5 q59 0 101 -41t42 -101q0 -63 -41 -104t-102 -41q-59 0 -101.5 43t-42.5 102z" />
<glyph unicode="&#x131;" d="M141 1010h357v-1010h-357v1010z" />
<glyph unicode="&#x152;" horiz-adv-x="2224" d="M94 731q0 164 54.5 305.5t153.5 244.5t238.5 162.5t311.5 59.5q287 0 444 -207v168h861v-321h-508v-254h479v-314h-479v-247h508v-328h-861v199q-92 -123 -206.5 -180.5t-274.5 -57.5q-150 0 -270.5 49t-225.5 156q-225 229 -225 565zM481 731q0 -92 28 -173t80 -141.5 t124.5 -94t163.5 -33.5q88 0 160.5 31.5t124.5 90t81 140.5t29 180q0 102 -30 184t-83 139.5t-125.5 89.5t-156.5 32q-88 0 -161 -35t-125 -95.5t-81 -141.5t-29 -173z" />
<glyph unicode="&#x153;" horiz-adv-x="2009" d="M74 492q0 121 43 222t116.5 175t174 114.5t213.5 40.5q143 0 238 -44t159 -117q55 74 145 119t230 45q123 0 224 -41t172 -118t109.5 -187.5t38.5 -249.5v-27l-766 -4q0 -104 62.5 -162.5t167.5 -58.5q162 0 219 123l268 -111q-47 -119 -169 -184.5t-306 -65.5 q-143 0 -240.5 37t-160.5 123q-63 -88 -156.5 -124t-232.5 -36q-119 0 -219.5 39t-174 108.5t-114.5 168t-41 215.5zM426 502q0 -123 59.5 -193.5t161.5 -70.5t160.5 69.5t58.5 194.5q0 123 -58 194.5t-161 71.5q-102 0 -161.5 -71.5t-59.5 -194.5zM1178 625l409 4 q-10 88 -66.5 139t-136.5 51q-175 1 -206 -194z" />
<glyph unicode="&#x178;" horiz-adv-x="1222" d="M-98 1464h460l197 -377l24 -45q15 -29 25 -79q10 49 25.5 78.5t25.5 45.5l195 377h459l-512 -796v-668h-385v668zM272 1806q0 55 43 98.5t102 43.5t100.5 -41t41.5 -101q0 -63 -40 -104t-102 -41q-59 0 -102 43t-43 102zM663 1806q0 55 42 98.5t102 43.5q59 0 101 -41 t42 -101q0 -63 -41 -104t-102 -41q-59 0 -101.5 43t-42.5 102z" />
<glyph unicode="&#x2c6;" horiz-adv-x="1024" d="M190 1147l183 350h276l182 -350h-153l-166 180l-168 -180h-154z" />
<glyph unicode="&#x2dc;" horiz-adv-x="1024" d="M180 1192q29 125 80 185.5t135 60.5q31 0 90 -17l95 -26q25 -8 57 -9q68 0 88 87h119q-31 -129 -82 -191.5t-137 -62.5q-16 0 -36 2t-40 8l-92 26l-40.5 10.5t-27.5 4.5q-63 0 -90 -78h-119z" />
<glyph unicode="&#x2000;" horiz-adv-x="985" />
<glyph unicode="&#x2001;" horiz-adv-x="1972" />
<glyph unicode="&#x2002;" horiz-adv-x="985" />
<glyph unicode="&#x2003;" horiz-adv-x="1972" />
<glyph unicode="&#x2004;" horiz-adv-x="657" />
<glyph unicode="&#x2005;" horiz-adv-x="491" />
<glyph unicode="&#x2006;" horiz-adv-x="327" />
<glyph unicode="&#x2007;" horiz-adv-x="327" />
<glyph unicode="&#x2008;" horiz-adv-x="245" />
<glyph unicode="&#x2009;" horiz-adv-x="393" />
<glyph unicode="&#x200a;" horiz-adv-x="108" />
<glyph unicode="&#x2010;" horiz-adv-x="933" d="M127 340v326h680v-326h-680z" />
<glyph unicode="&#x2011;" horiz-adv-x="933" d="M127 340v326h680v-326h-680z" />
<glyph unicode="&#x2013;" horiz-adv-x="1024" d="M0 367v272h1024v-272h-1024z" />
<glyph unicode="&#x2014;" horiz-adv-x="2048" d="M0 367v272h2048v-272h-2048z" />
<glyph unicode="&#x2018;" d="M27 838l309 626h276l-211 -626h-374z" />
<glyph unicode="&#x2019;" d="M27 838l213 626h372l-309 -626h-276z" />
<glyph unicode="&#x201a;" d="M27 -295l213 627h372l-309 -627h-276z" />
<glyph unicode="&#x201c;" horiz-adv-x="1157" d="M27 838l309 626h276l-211 -626h-374zM545 838l309 626h276l-212 -626h-373z" />
<glyph unicode="&#x201d;" horiz-adv-x="1157" d="M27 838l213 626h372l-309 -626h-276zM545 838l211 626h374l-309 -626h-276z" />
<glyph unicode="&#x201e;" horiz-adv-x="1157" d="M27 -295l213 627h372l-309 -627h-276zM545 -295l211 627h374l-309 -627h-276z" />
<glyph unicode="&#x2022;" horiz-adv-x="1208" d="M307 762q0 61 23.5 115.5t63.5 94.5t94.5 62.5t115.5 22.5t114.5 -22.5t93.5 -62.5t63.5 -94.5t23.5 -115.5t-23.5 -114.5t-63.5 -94.5t-94 -64.5t-116 -23.5q-61 0 -114.5 23.5t-93.5 63.5t-63.5 94.5t-23.5 115.5z" />
<glyph unicode="&#x2026;" horiz-adv-x="2048" d="M141 164q0 41 15.5 78t42 64.5t63.5 44t80 16.5q86 0 144.5 -58.5t58.5 -144.5q0 -43 -15.5 -80t-43 -64.5t-64.5 -43t-80 -15.5q-86 0 -143.5 58.5t-57.5 144.5zM823 164q0 41 15.5 78t42 64.5t63.5 44t80 16.5q86 0 144.5 -58.5t58.5 -144.5q0 -43 -15.5 -80t-43 -64.5 t-64.5 -43t-80 -15.5q-86 0 -143.5 58.5t-57.5 144.5zM1507 164q0 41 15.5 78t42 64.5t63.5 44t80 16.5q86 0 144.5 -58.5t58.5 -144.5q0 -43 -15.5 -80t-43 -64.5t-64.5 -43t-80 -15.5q-86 0 -143.5 58.5t-57.5 144.5z" />
<glyph unicode="&#x202f;" horiz-adv-x="393" />
<glyph unicode="&#x2039;" d="M45 502l358 489l193 -139l-264 -350l264 -355l-193 -133z" />
<glyph unicode="&#x203a;" d="M45 147l262 355l-262 350l191 139l360 -489l-360 -488z" />
<glyph unicode="&#x205f;" horiz-adv-x="491" />
<glyph unicode="&#x2122;" horiz-adv-x="1705" d="M188 1337v127h502v-127h-164v-424h-174v424h-164zM797 913v551h223l113 -303l114 303h221v-551h-155v390l-146 -390h-65l-150 390v-390h-155z" />
</font>
</defs>
</svg>
